HIERARCHY
ROOT hip
{
  OFFSET 218.684 18.9513 4.52441
  CHANNELS 6 Xposition Yposition Zposition Zrotation Xrotation Yrotation
  JOINT abdomen
  {
    OFFSET 0 20.6881 -0.73152
    CHANNELS 3 Zrotation Xrotation Yrotation
    JOINT chest
    {
      OFFSET 0 11.7043 -0.48768
      CHANNELS 3 Zrotation Xrotation Yrotation
      JOINT neck
      {
        OFFSET 0 22.1894 -2.19456
        CHANNELS 3 Zrotation Xrotation Yrotation
        JOINT head
        {
          OFFSET -0.24384 7.07133 1.2192
          CHANNELS 3 Zrotation Xrotation Yrotation
          JOINT leftEye
          {
            OFFSET 4.14528 8.04674 8.04672
            CHANNELS 3 Zrotation Xrotation Yrotation
            End Site
            {
              OFFSET 1 0 0
            }
          }
          JOINT rightEye
          {
            OFFSET -3.6576 8.04674 8.04672
            CHANNELS 3 Zrotation Xrotation Yrotation
            End Site
            {
              OFFSET 1 0 0
            }
          }
        }
      }
      JOINT rCollar
      {
        OFFSET -2.68224 19.2634 -4.8768
        CHANNELS 3 Zrotation Xrotation Yrotation
        JOINT rShldr
        {
          OFFSET -8.77824 -1.95073 1.46304
          CHANNELS 3 Zrotation Xrotation Yrotation
          JOINT rForeArm
          {
            OFFSET -28.1742 -1.7115 0.48768
            CHANNELS 3 Zrotation Xrotation Yrotation
            JOINT rHand
            {
              OFFSET -22.5879 0.773209 7.07136
              CHANNELS 3 Zrotation Xrotation Yrotation
              JOINT rThumb1
              {
                OFFSET -1.2192 -0.487915 3.41376
                CHANNELS 3 Zrotation Xrotation Yrotation
                JOINT rThumb2
                {
                  OFFSET -3.37035 -0.52449 3.41376
                  CHANNELS 3 Zrotation Xrotation Yrotation
                  End Site
                  {
                    OFFSET -1.78271 -1.18214 1.43049
                  }
                }
              }
              JOINT rIndex1
              {
                OFFSET -7.75947 0.938293 5.60832
                CHANNELS 3 Zrotation Xrotation Yrotation
                JOINT rIndex2
                {
                  OFFSET -2.54057 -0.884171 1.56538
                  CHANNELS 3 Zrotation Xrotation Yrotation
                  End Site
                  {
                    OFFSET -1.62519 -0.234802 1.16502
                  }
                }
              }
              JOINT rMid1
              {
                OFFSET -8.24714 1.18213 3.41376
                CHANNELS 3 Zrotation Xrotation Yrotation
                JOINT rMid2
                {
                  OFFSET -3.10165 -0.590103 1.0647
                  CHANNELS 3 Zrotation Xrotation Yrotation
                  End Site
                  {
                    OFFSET -2.48547 -0.328903 0.83742
                  }
                }
              }
              JOINT rRing1
              {
                OFFSET -8.82822 0.546677 1.51678
                CHANNELS 3 Zrotation Xrotation Yrotation
                JOINT rRing2
                {
                  OFFSET -2.60934 -0.819778 -0.0198488
                  CHANNELS 3 Zrotation Xrotation Yrotation
                  End Site
                  {
                    OFFSET -2.33842 -0.294052 0.168128
                  }
                }
              }
              JOINT rPinky1
              {
                OFFSET -8.27202 -0.0477905 -0.4584
                CHANNELS 3 Zrotation Xrotation Yrotation
                JOINT rPinky2
                {
                  OFFSET -1.82734 -0.647385 -0.700984
                  CHANNELS 3 Zrotation Xrotation Yrotation
                  End Site
                  {
                    OFFSET -1.69225 -0.51767 -0.607171
                  }
                }
              }
            }
          }
        }
      }
      JOINT lCollar
      {
        OFFSET 2.68224 19.2634 -4.8768
        CHANNELS 3 Zrotation Xrotation Yrotation
        JOINT lShldr
        {
          OFFSET 8.77824 -1.95073 1.46304
          CHANNELS 3 Zrotation Xrotation Yrotation
          JOINT lForeArm
          {
            OFFSET 28.1742 -1.7115 0.48768
            CHANNELS 3 Zrotation Xrotation Yrotation
            JOINT lHand
            {
              OFFSET 22.5879 0.773209 7.07136
              CHANNELS 3 Zrotation Xrotation Yrotation
              JOINT lThumb1
              {
                OFFSET 1.2192 -0.487915 3.41376
                CHANNELS 3 Zrotation Xrotation Yrotation
                JOINT lThumb2
                {
                  OFFSET 3.37035 -0.52449 3.41376
                  CHANNELS 3 Zrotation Xrotation Yrotation
                  End Site
                  {
                    OFFSET 1.78271 -1.18214 1.43049
                  }
                }
              }
              JOINT lIndex1
              {
                OFFSET 7.75947 0.938293 5.60832
                CHANNELS 3 Zrotation Xrotation Yrotation
                JOINT lIndex2
                {
                  OFFSET 2.54057 -0.884171 1.56538
                  CHANNELS 3 Zrotation Xrotation Yrotation
                  End Site
                  {
                    OFFSET 1.62519 -0.234802 1.16502
                  }
                }
              }
              JOINT lMid1
              {
                OFFSET 8.24714 1.18213 3.41376
                CHANNELS 3 Zrotation Xrotation Yrotation
                JOINT lMid2
                {
                  OFFSET 3.10165 -0.590103 1.0647
                  CHANNELS 3 Zrotation Xrotation Yrotation
                  End Site
                  {
                    OFFSET 2.48547 -0.328903 0.83742
                  }
                }
              }
              JOINT lRing1
              {
                OFFSET 8.82822 0.546677 1.51678
                CHANNELS 3 Zrotation Xrotation Yrotation
                JOINT lRing2
                {
                  OFFSET 2.60934 -0.819778 -0.0198488
                  CHANNELS 3 Zrotation Xrotation Yrotation
                  End Site
                  {
                    OFFSET 2.33842 -0.294052 0.168128
                  }
                }
              }
              JOINT lPinky1
              {
                OFFSET 8.27202 -0.0477905 -0.4584
                CHANNELS 3 Zrotation Xrotation Yrotation
                JOINT lPinky2
                {
                  OFFSET 1.82734 -0.647385 -0.700984
                  CHANNELS 3 Zrotation Xrotation Yrotation
                  End Site
                  {
                    OFFSET 1.69225 -0.51767 -0.607171
                  }
                }
              }
            }
          }
        }
      }
    }
  }
  JOINT rButtock
  {
    OFFSET -8.77824 4.35084 1.2192
    CHANNELS 3 Zrotation Xrotation Yrotation
    JOINT rThigh
    {
      OFFSET 0 -1.70687 -2.19456
      CHANNELS 3 Zrotation Xrotation Yrotation
      JOINT rShin
      {
        OFFSET 0 -36.8199 0.73152
        CHANNELS 3 Zrotation Xrotation Yrotation
        JOINT rFoot
        {
          OFFSET 0.73152 -45.1104 -5.12064
          CHANNELS 3 Zrotation Xrotation Yrotation
          End Site
          {
            OFFSET -1.1221 -3.69964 12.103
          }
        }
      }
    }
  }
  JOINT lButtock
  {
    OFFSET 8.77824 4.35084 1.2192
    CHANNELS 3 Zrotation Xrotation Yrotation
    JOINT lThigh
    {
      OFFSET 0 -1.70687 -2.19456
      CHANNELS 3 Zrotation Xrotation Yrotation
      JOINT lShin
      {
        OFFSET 0 -36.8199 0.73152
        CHANNELS 3 Zrotation Xrotation Yrotation
        JOINT lFoot
        {
          OFFSET -0.73152 -45.1104 -5.12064
          CHANNELS 3 Zrotation Xrotation Yrotation
          End Site
          {
            OFFSET 1.1221 -3.69964 12.103
          }
        }
      }
    }
  }
}
MOTION
Frames:	5
Frame Time:	0.00833333
50.2689 84.8928 6.9843 0.136911 -0.000169056 -0.00234492 -0.180103 -0.000587638 -0.00513672 -0.0496698 -0.00086121 -0.00860454 9.90632e-016 -7.95139e-016 2.17421e-017 2.97866e-015 3.18055e-015 6.21202e-017 -0 0 0 -0 0 0 4.95657e-016 7.76503e-019 1.49089e-016 1.30993e-014 -2.54693e-016 1.19271e-015 1.88249e-013 -5.36719e-014 -1.59028e-014 2.09877e-012 5.77469e-014 5.725e-014 4.95935e-012 9.46581e-015 1.11319e-013 8.55927e-012 1.27222e-014 1.80496e-013 4.96723e-012 1.15295e-014 9.85972e-014 7.73091 5.47488 0.417314 4.96027e-012 9.74045e-015 1.04958e-013 2.90554 0.965183 0.102902 4.97262e-012 9.74045e-015 1.08139e-013 10.2786 0.731801 0.0259123 4.95232e-012 1.19271e-014 1.17681e-013 2.22167 -0.733487 -0.20892 4.983e-016 7.76503e-019 -1.49089e-016 8.37613e-015 -2.42269e-016 -7.95139e-016 1.81093e-013 5.52621e-014 0 2.10301e-012 -5.74736e-014 4.77083e-014 4.95633e-012 -3.38963e-015 1.11319e-013 8.56126e-012 -6.36111e-015 1.87653e-013 4.95252e-012 0 1.24042e-013 -7.73091 5.47488 -0.417314 4.9558e-012 -3.27995e-015 1.04958e-013 -2.90554 0.965183 -0.102902 4.95194e-012 -3.27995e-015 1.08139e-013 -10.2786 0.731801 -0.0259123 4.96067e-012 -7.95139e-016 9.85972e-014 -2.22167 -0.733487 0.20892 -2.03217e-016 0 -3.88251e-019 0.372802 -2.84397 -0.0346955 -0.00664424 -0.401429 -0.0583802 -0.508919 3.24461 0.124422 2.03217e-016 0 3.88251e-019 -0.648538 -3.54396 0.0518895 0.00461617 0.866552 0.0396593 0.512639 2.67665 -0.113289 
54.9128 83.5445 2.84375 1.20337 7.06715 25.3754 -1.24883 -5.24374 -0.690967 0.295982 1.01778 -0.202416 -2.02955 4.80236 -0.75839 3.19855 -5.19254 -1.1558 -0 0 0 -0 0 0 1.90793e-015 -4.41785e-014 -5.5054e-016 6.7672 -4.26429 7.0647 0.548539 16.6578 -40.5596 0.00294525 -1.20463 -0.169165 -4.05856e-011 1.16451e-010 1.3563e-011 -7.02594e-011 2.01728e-010 2.3626e-011 -4.05761e-011 1.16451e-010 1.35491e-011 7.73091 5.47488 0.417314 -4.05847e-011 1.16451e-010 1.35575e-011 2.90554 0.965183 0.102902 -4.05705e-011 1.16449e-010 1.3558e-011 10.2786 0.731801 0.0259123 -4.05917e-011 1.16452e-010 1.35692e-011 2.22167 -0.733487 -0.20892 1.8458e-015 -4.41771e-014 -8.78224e-016 1.60859 -6.74309 -9.23276 24.0137 -21.8699 -14.6797 -0.017114 2.90327 -0.406139 -5.09537e-011 -4.66864e-011 2.7091e-011 -8.76416e-011 -7.98248e-011 4.70642e-011 -5.0961e-011 -4.66856e-011 2.71021e-011 -7.73091 5.47488 -0.417314 -5.09539e-011 -4.66869e-011 2.70864e-011 -2.90554 0.965183 -0.102902 -5.0958e-011 -4.66867e-011 2.70883e-011 -10.2786 0.731801 -0.0259123 -5.09512e-011 -4.66846e-011 2.70793e-011 -2.22167 -0.733487 0.20892 -2.03217e-016 0 -3.88251e-019 -0.878659 -7.49233 2.79821 0.0773484 6.70417 0.206059 0.385682 0.31178 -6.33165 2.03217e-016 0 3.88251e-019 0.729287 -9.99423 -2.61455 -0.0970655 8.09338 -0.257851 -0.178554 -0.996145 4.81076 
54.8506 83.5908 2.8367 -3.54002 9.90099 52.8914 -2.52005 -10.7893 -1.44262 0.669955 2.0891 -0.409571 -4.0347 9.88496 -1.58454 6.34288 -10.673 -2.42515 -0 0 0 -0 0 0 3.66243e-015 -9.6656e-014 -1.45982e-015 15.0744 -8.54458 14.6592 16.4879 7.46217 -82.2645 -0.0016782 -2.47307 -0.347544 -6.6154e-011 2.17404e-010 -8.12451e-012 -1.14264e-010 3.76736e-010 -1.37581e-011 -6.61425e-011 2.17402e-010 -8.13964e-012 7.73091 5.47488 0.417314 -6.61531e-011 2.17403e-010 -8.12911e-012 2.90554 0.965183 0.102902 -6.61367e-011 2.17401e-010 -8.13159e-012 10.2786 0.731801 0.0259123 -6.61589e-011 2.17404e-010 -8.11837e-012 2.22167 -0.733487 -0.20892 3.53131e-015 -9.66529e-014 -1.82012e-015 0.92526 -13.2621 -19.3924 34.675 -39.7314 -37.5912 0.00980088 5.9796 -0.840041 -1.51471e-010 -1.37357e-010 1.13695e-010 -2.606e-010 -2.35028e-010 1.97365e-010 -1.51482e-010 -1.37359e-010 1.13705e-010 -7.73091 5.47488 -0.417314 -1.51471e-010 -1.37358e-010 1.13693e-010 -2.90554 0.965183 -0.102902 -1.51475e-010 -1.37358e-010 1.13693e-010 -10.2786 0.731801 -0.0259123 -1.51471e-010 -1.37356e-010 1.13685e-010 -2.22167 -0.733487 0.20892 -2.03217e-016 0 -3.88251e-019 -1.6939 -12.3579 5.88021 0.0928433 14.2089 0.497765 0.61793 -2.71005 -13.1718 2.03217e-016 0 3.88251e-019 1.50356 -16.756 -5.59323 -0.120089 15.7301 -0.589074 -0.224308 -4.80962 10.0512 
54.8831 83.5872 2.80002 -9.41536 5.71116 76.6631 -3.77522 -15.7208 -2.1338 1.00799 3.05493 -0.590781 -5.69685 14.3968 -2.34073 8.94728 -15.5518 -3.58456 -0 0 0 -0 0 0 4.73248e-015 -1.32537e-013 -1.9498e-015 23.4349 -12.0098 21.6316 22.4066 -22.9482 -101.657 -0.0125401 -3.61377 -0.508394 -1.31676e-010 3.49334e-010 4.04662e-011 -2.27897e-010 6.05159e-010 7.05171e-011 -1.31663e-010 3.4933e-010 4.04502e-011 7.73091 5.47488 0.417314 -1.31675e-010 3.49332e-010 4.04625e-011 2.90554 0.965183 0.102902 -1.31657e-010 3.49329e-010 4.04576e-011 10.2786 0.731801 0.0259123 -1.3168e-010 3.49333e-010 4.04724e-011 2.22167 -0.733487 -0.20892 4.54079e-015 -1.32533e-013 -2.3365e-015 -1.68663 -18.0901 -29.0676 30.9944 -44.4141 -66.1892 0.0733524 8.70805 -1.23105 -1.62774e-010 -1.40052e-010 8.10505e-011 -2.80047e-010 -2.39462e-010 1.40817e-010 -1.62788e-010 -1.40057e-010 8.10582e-011 -7.73091 5.47488 -0.417314 -1.62773e-010 -1.40054e-010 8.10493e-011 -2.90554 0.965183 -0.102902 -1.62778e-010 -1.40054e-010 8.10487e-011 -10.2786 0.731801 -0.0259123 -1.62775e-010 -1.40052e-010 8.10406e-011 -2.22167 -0.733487 0.20892 -2.03217e-016 0 -3.88251e-019 -1.95494 -16.6303 8.76137 0.0374369 20.9137 0.782246 0.223359 -5.23727 -19.327 2.03217e-016 0 3.88251e-019 1.55665 -22.6997 -8.49007 -0.0596594 22.5447 -0.915093 0.325582 -8.07868 14.8067 
54.8899 83.5925 2.76031 -12.3117 -0.973588 91.8165 -4.70401 -19.1266 -2.60412 1.24137 3.75723 -0.706423 -6.78846 17.492 -2.85785 10.6803 -18.9523 -4.35436 -0 0 0 -0 0 0 4.09141e-015 -1.26927e-013 -1.39149e-015 29.7398 -14.1793 26.6352 23.8874 -49.5405 -103.639 -0.0241868 -4.43522 -0.62459 -2.9708e-010 5.58706e-010 2.64753e-010 -5.15601e-010 9.67121e-010 4.58941e-010 -2.97067e-010 5.58701e-010 2.64737e-010 7.73091 5.47488 0.417314 -2.9708e-010 5.58703e-010 2.64749e-010 2.90554 0.965183 0.102902 -2.97062e-010 5.587e-010 2.64744e-010 10.2786 0.731801 0.0259123 -2.97084e-010 5.58705e-010 2.64759e-010 2.22167 -0.733487 -0.20892 3.86022e-015 -1.26922e-013 -1.78906e-015 -4.54938 -20.715 -36.2308 28.1069 -39.808 -83.5782 0.13898 10.5685 -1.50256 4.89605e-011 7.71917e-011 -2.49718e-010 8.42815e-011 1.3303e-010 -4.32849e-010 4.89452e-011 7.71857e-011 -2.49712e-010 -7.73091 5.47488 -0.417314 4.89612e-011 7.71895e-011 -2.49718e-010 -2.90554 0.965183 -0.102902 4.8956e-011 7.71901e-011 -2.4972e-010 -10.2786 0.731801 -0.0259123 4.89591e-011 7.71913e-011 -2.49728e-010 -2.22167 -0.733487 0.20892 -2.03217e-016 0 -3.88251e-019 -1.85107 -19.5658 10.8745 -0.0454161 25.6206 1.00324 -0.373351 -6.86063 -23.6619 2.03217e-016 0 3.88251e-019 1.21238 -26.7795 -10.6915 0.0346028 27.3062 -1.1697 1.03658 -10.2524 18.187 
